<?xml version="1.0" encoding="UTF-8"?>
<svg width="78px" height="858px" viewBox="0 0 78 858" version="1.1" xmlns="http://www.w3.org/2000/svg" xmlns:xlink="http://www.w3.org/1999/xlink">
    <!-- Generator: Sketch 56.3 (81716) - https://sketch.com -->
    <title>编组 2</title>
    <desc>Created with Sketch.</desc>
    <g id="页面-1" stroke="none" stroke-width="1" fill="none" fill-rule="evenodd">
        <g id="编组-2" transform="translate(0.515000, 0.000000)">
            <path d="M10.118605,203.085125 C11.394286,203.330944 14.151667,204.270506 14.151667,207.8 L14.151667,210.2 C14.151667,212.535636 16.485,215 16.485,215 L2.485,215 C2.485,215 4.818333,212.535636 4.818333,210.2 L4.818333,207.8 C4.818333,204.270506 7.575714,203.330944 8.851395,203.085125 C8.530588,202.883179 8.318333,202.532335 8.318333,202.133333 C8.318333,201.507411 8.840668,201 9.485,201 C10.129332,201 10.651667,201.507411 10.651667,202.133333 C10.651667,202.532335 10.439412,202.883179 10.118605,203.085125 L10.118605,203.085125 Z M10.651667,215.866667 L8.318333,215.866667 C8.318333,216.492267 8.841,217 9.485,217 C10.129,217 10.651667,216.492267 10.651667,215.866667 Z" id="Shape-2" fill="#A6A6A6" fill-rule="nonzero"></path>
            <path d="M10.118605,203.085125 C11.394286,203.330944 14.151667,204.270506 14.151667,207.8 L14.151667,210.2 C14.151667,212.535636 16.485,215 16.485,215 L2.485,215 C2.485,215 4.818333,212.535636 4.818333,210.2 L4.818333,207.8 C4.818333,204.270506 7.575714,203.330944 8.851395,203.085125 C8.530588,202.883179 8.318333,202.532335 8.318333,202.133333 C8.318333,201.507411 8.840668,201 9.485,201 C10.129332,201 10.651667,201.507411 10.651667,202.133333 C10.651667,202.532335 10.439412,202.883179 10.118605,203.085125 L10.118605,203.085125 Z M10.651667,215.866667 L8.318333,215.866667 C8.318333,216.492267 8.841,217 9.485,217 C10.129,217 10.651667,216.492267 10.651667,215.866667 Z" id="Shape-4" fill="#A6A6A6" fill-rule="nonzero"></path>
            <path d="M60.118605,203.085125 C61.394286,203.330944 64.151667,204.270506 64.151667,207.8 L64.151667,210.2 C64.151667,212.535636 66.485,215 66.485,215 L52.485,215 C52.485,215 54.818333,212.535636 54.818333,210.2 L54.818333,207.8 C54.818333,204.270506 57.575714,203.330944 58.851395,203.085125 C58.530588,202.883179 58.318333,202.532335 58.318333,202.133333 C58.318333,201.507411 58.840668,201 59.485,201 C60.129332,201 60.651667,201.507411 60.651667,202.133333 C60.651667,202.532335 60.439412,202.883179 60.118605,203.085125 L60.118605,203.085125 Z M60.651667,215.866667 L58.318333,215.866667 C58.318333,216.492267 58.841,217 59.485,217 C60.129,217 60.651667,216.492267 60.651667,215.866667 Z" id="Shape-5" fill="#474747" fill-rule="nonzero"></path>
            <path d="M14.492905,631.048 L5.485,631.048 L5.485,628.813 C6.924,627.751 8.215,626.382 10.601,625.72 L10.601,625.664 C9.24,624.353 8.467,621.793 8.467,619.896 C8.467,617.24 9.974,615 12.502,615 C15.03,615 16.496,617.154 16.496,619.81 C16.496,621.463113 15.925849,623.651407 14.886959,625.071788 L11.834133,625.51539 L14.925066,628.528305 L14.492905,631.048 L14.492905,631.048 Z M17.494821,631.048 L18.537179,631.048 L18.016,630.774 L17.494821,631.048 L17.494821,631.048 Z M18.016,630.274 L14.783181,631.973593 L15.400595,628.373797 L12.785189,625.824407 L16.399591,625.299203 L18.016,622.024 L19.632409,625.299203 L23.246811,625.824407 L20.631405,628.373797 L21.248819,631.973593 L18.016,630.274 Z" id="Shape-3" fill="#A6A6A6" fill-rule="nonzero"></path>
            <path d="M64.492905,631.048 L55.485,631.048 L55.485,628.813 C56.924,627.751 58.215,626.382 60.601,625.72 L60.601,625.664 C59.24,624.353 58.467,621.793 58.467,619.896 C58.467,617.24 59.974,615 62.502,615 C65.03,615 66.496,617.154 66.496,619.81 C66.496,621.463113 65.925849,623.651407 64.886959,625.071788 L61.834133,625.51539 L64.925066,628.528305 L64.492905,631.048 L64.492905,631.048 Z M67.494821,631.048 L68.537179,631.048 L68.016,630.774 L67.494821,631.048 L67.494821,631.048 Z M68.016,630.274 L64.783181,631.973593 L65.400595,628.373797 L62.785189,625.824407 L66.399591,625.299203 L68.016,622.024 L69.632409,625.299203 L73.246811,625.824407 L70.631405,628.373797 L71.248819,631.973593 L68.016,630.274 Z" id="Shape-7" fill="#F2F2F2" fill-rule="nonzero"></path>
            <path d="M10.485,478 C9.772056,477.218612 9.43151,476.827527 9.485,476 C8.673708,476.10074 8.270622,475.778631 7.485,475 C7.842694,475.086923 7.861151,474.6738 7.485,474 C6.966525,473.914329 5.017022,473.349015 3.485,474 C3.751886,471.380363 6.138164,468.748519 6.485,469 L9.485,469 C10.030126,468.684097 10.428312,468.162736 10.485,468 C13.447203,464.833178 17.017062,463.607914 20.485,464 C20.966825,467.396019 20.027411,471.144066 17.485,474 C17.00852,474.473624 16.530606,474.918519 16.485,475 L16.485,479 C16.73961,478.91606 14.353332,481.547904 11.485,482 C12.355602,480.387235 11.67129,478.426533 11.485,477 C10.872241,477.56165 10.472823,477.609404 10.485,478 Z M14.485,470 C15.567877,470.16201 16.517043,470.128865 17.485,470 C17.64701,468.917123 17.613865,467.967957 17.485,467 C16.402123,466.83799 15.452957,466.871135 14.485,467 C14.32299,468.082877 14.356135,469.032043 14.485,470 Z M7.485,476 L4.485,476 L4.485,481 L9.485,481 L9.485,478 L7.485,478 L7.485,476 Z" id="Oval-25" fill="#A6A6A6" fill-rule="nonzero"></path>
            <path d="M60.485,478 C59.772056,477.218612 59.43151,476.827527 59.485,476 C58.673708,476.10074 58.270622,475.778631 57.485,475 C57.842694,475.086923 57.861151,474.6738 57.485,474 C56.966525,473.914329 55.017022,473.349015 53.485,474 C53.751886,471.380363 56.138164,468.748519 56.485,469 L59.485,469 C60.030126,468.684097 60.428312,468.162736 60.485,468 C63.447203,464.833178 67.017062,463.607914 70.485,464 C70.966825,467.396019 70.027411,471.144066 67.485,474 C67.00852,474.473624 66.530606,474.918519 66.485,475 L66.485,479 C66.73961,478.91606 64.353332,481.547904 61.485,482 C62.355602,480.387235 61.67129,478.426533 61.485,477 C60.872241,477.56165 60.472823,477.609404 60.485,478 Z M64.485,470 C65.567877,470.16201 66.517043,470.128865 67.485,470 C67.64701,468.917123 67.613865,467.967957 67.485,467 C66.402123,466.83799 65.452957,466.871135 64.485,467 C64.32299,468.082877 64.356135,469.032043 64.485,470 Z M57.485,476 L54.485,476 L54.485,481 L59.485,481 L59.485,478 L57.485,478 L57.485,476 Z" id="Oval-26" fill="#F2F2F2" fill-rule="nonzero"></path>
            <path d="M5.985,265 C7.365712,265 8.485,263.880712 8.485,262.5 C8.485,261.119288 7.365712,260 5.985,260 C4.604288,260 3.485,261.119288 3.485,262.5 C3.485,263.880712 4.604288,265 5.985,265 Z M12.985,265 C14.365712,265 15.485,263.880712 15.485,262.5 C15.485,261.119288 14.365712,260 12.985,260 C11.604288,260 10.485,261.119288 10.485,262.5 C10.485,263.880712 11.604288,265 12.985,265 Z M19.985,265 C21.365712,265 22.485,263.880712 22.485,262.5 C22.485,261.119288 21.365712,260 19.985,260 C18.604288,260 17.485,261.119288 17.485,262.5 C17.485,263.880712 18.604288,265 19.985,265 Z" id="Oval-10" fill="#999999" fill-rule="nonzero"></path>
            <rect id="Rectangle-path" fill="#232323" fill-rule="nonzero" x="50.485" y="12" width="16" height="3"></rect>
            <polygon id="Shape" fill="#CA1200" fill-rule="nonzero" points="56.485 165 59.485 165 59.485 159 65.485 159 65.485 156 59.485 156 59.485 150 56.485 150 56.485 156 50.485 156 50.485 159 56.485 159"></polygon>
            <path d="M66.23,114.339 L63.402,111.511 C63.353,111.462 63.291,111.437 63.235,111.4 C64.878,109.077 64.675,105.847 62.594,103.767 C60.27,101.442 56.501,101.442 54.176,103.767 C51.851,106.091 51.851,109.86 54.176,112.185 C56.279,114.288 59.554,114.469 61.882,112.767 C61.918,112.82 61.941,112.879 61.988,112.926 L64.816,115.754 C65.207,116.145 65.84,116.145 66.23,115.754 C66.62,115.362 66.62,114.729 66.23,114.339 L66.23,114.339 Z M61.403,110.992 C59.737,112.658 57.036,112.658 55.369,110.992 C53.703,109.326 53.703,106.624 55.369,104.958 C57.035,103.292 59.737,103.292 61.403,104.958 C63.07,106.625 63.07,109.326 61.403,110.992 L61.403,110.992 Z" id="Shape" fill="#474747" fill-rule="nonzero"></path>
            <rect id="Rectangle-path" fill="#232323" fill-rule="nonzero" x="50.485" y="6" width="16" height="3"></rect>
            <rect id="Rectangle-path" fill="#232323" fill-rule="nonzero" x="50.485" y="0" width="16" height="3"></rect>
            <path d="M64.405,661.988 C63.074,661.988 61.924,663.088 61.924,664.433 C61.924,665.687 62.741,666.513 63.982,666.513 C65.343,666.513 66.493,665.474 66.493,664.067 C66.493,662.813 65.616,661.988 64.405,661.988 L64.405,661.988 Z" id="Shape" fill="#F2F2F2" fill-rule="nonzero"></path>
            <g id="Group" transform="translate(54.485000, 361.000000)" fill="#FFFFFF" fill-rule="nonzero">
                <path d="M4.5,0 C3.119,0 2,1.119 2,2.5 C2,2.671 2.018,2.838 2.05,3 L4,3 L4,13 L2.5,13 C1.119,13 0,14.119 0,15.5 C0,15.671 0.018,15.838 0.05,16 L7,16 L7,22 L8,23 L9,22 L9,16.507 L8.534,16.041 L10.711,13.864 L8.617,11.77 L11.938,8.449 L12,8.512 L12,3 L13.949,3 C13.982,2.838 13.999,2.671 13.999,2.5 C13.999,1.119 12.88,0 11.499,0 L4.5,0 L4.5,0 Z" id="Shape"></path>
                <polygon id="Shape" points="9.958 11.372 12.596 14.01 10.021 16.597 11.435 18.011 14.01 15.424 16.629 18.042 18.043 16.628 15.421 14.006 18.043 11.372 16.628 9.958 14.007 12.592 11.372 9.957"></polygon>
            </g>
            <path d="M56.478,671.893 C56.478,672.076 56.659,672.291 56.872,672.291 C57.416,672.291 58.868,669.631 59.988,669.631 C60.23,669.631 60.503,669.906 60.291,670.456 L58.174,675.837 C57.962,676.357 56.933,678.864 56.933,680.331 C56.933,681.493 57.689,682.012 58.779,682.012 C61.835,682.012 65.374,678.221 65.374,677.335 C65.374,677.06 65.163,676.877 65.012,676.877 C64.588,676.877 62.923,679.476 62.016,679.476 C61.774,679.476 61.654,679.261 61.654,679.048 C61.654,678.559 61.987,677.794 62.168,677.336 L64.346,671.375 C65.436,668.409 64.043,667.615 62.742,667.615 C60.987,667.615 59.414,668.501 58.204,669.663 C57.809,670.059 56.478,671.342 56.478,671.893 L56.478,671.893 Z" id="Shape" fill="#F2F2F2" fill-rule="nonzero"></path>
            <path d="M16.23,114.339 L13.402,111.511 C13.353,111.462 13.291,111.437 13.235,111.4 C14.878,109.077 14.675,105.847 12.594,103.767 C10.27,101.442 6.501,101.442 4.176,103.767 C1.851,106.091 1.851,109.86 4.176,112.185 C6.279,114.288 9.554,114.469 11.882,112.767 C11.918,112.82 11.941,112.879 11.988,112.926 L14.816,115.754 C15.207,116.145 15.84,116.145 16.23,115.754 C16.62,115.362 16.62,114.729 16.23,114.339 L16.23,114.339 Z M11.403,110.992 C9.737,112.658 7.036,112.658 5.369,110.992 C3.703,109.326 3.703,106.624 5.369,104.958 C7.035,103.292 9.736,103.292 11.403,104.958 C13.07,106.625 13.07,109.326 11.403,110.992 L11.403,110.992 Z" id="Shape" fill="#BBBBBB" fill-rule="nonzero"></path>
            <rect id="Rectangle-path" fill="#565656" fill-rule="nonzero" x="0.485" y="12" width="16" height="3"></rect>
            <rect id="Rectangle-path" fill="#565656" fill-rule="nonzero" x="0.485" y="0" width="16" height="3"></rect>
            <rect id="Rectangle-path" fill="#565656" fill-rule="nonzero" x="0.485" y="6" width="16" height="3"></rect>
            <path d="M20.485,376.5 C20.485,375.119 19.366,374 17.985,374 L16.485,374 L16.485,364 L18.435,364 C18.468,363.838 18.485,363.671 18.485,363.5 C18.485,362.119 17.366,361 15.985,361 L8.985,361 C7.604,361 6.485,362.119 6.485,363.5 C6.485,363.671 6.503,363.838 6.535,364 L8.485,364 L8.485,374 L6.985,374 C5.604,374 4.485,375.119 4.485,376.5 C4.485,376.671 4.503,376.838 4.535,377 L11.485,377 L11.485,383 L12.485,384 L13.485,383 L13.485,377 L20.435,377 C20.468,376.838 20.485,376.671 20.485,376.5 L20.485,376.5 Z" id="Shape" fill="#000000" fill-rule="nonzero"></path>
            <polygon id="Shape" fill="#565656" fill-rule="nonzero" points="6.485 165 9.485 165 9.485 159 15.485 159 15.485 156 9.485 156 9.485 150 6.485 150 6.485 156 0.485 156 0.485 159 6.485 159"></polygon>
            <path d="M6.478,671.893 C6.478,672.076 6.659,672.291 6.871,672.291 C7.415,672.291 8.867,669.631 9.987,669.631 C10.229,669.631 10.502,669.906 10.29,670.456 L8.173,675.837 C7.961,676.357 6.932,678.864 6.932,680.331 C6.932,681.493 7.688,682.012 8.778,682.012 C11.834,682.012 15.373,678.221 15.373,677.335 C15.373,677.06 15.162,676.877 15.011,676.877 C14.587,676.877 12.922,679.476 12.015,679.476 C11.773,679.476 11.653,679.261 11.653,679.048 C11.653,678.559 11.986,677.794 12.167,677.336 L14.345,671.375 C15.435,668.409 14.042,667.615 12.741,667.615 C10.986,667.615 9.413,668.501 8.203,669.663 C7.809,670.059 6.478,671.342 6.478,671.893 L6.478,671.893 Z" id="Shape" fill="#A6A6A6" fill-rule="nonzero"></path>
            <path d="M14.405,661.988 C13.074,661.988 11.924,663.088 11.924,664.433 C11.924,665.687 12.741,666.513 13.982,666.513 C15.343,666.513 16.493,665.474 16.493,664.067 C16.493,662.813 15.616,661.988 14.405,661.988 L14.405,661.988 Z" id="Shape" fill="#A6A6A6" fill-rule="nonzero"></path>
            <path d="M1.532,321.783 L4.42,318.893 L7.267,321.741 C7.35,321.687 7.442,321.649 7.515,321.576 C8.085,321.006 8.085,320.082 7.515,319.512 L6.896,318.893 L11.022,314.765 L11.806,315.549 C11.889,315.495 11.981,315.457 12.054,315.384 C12.624,314.814 12.624,313.89 12.054,313.32 L9.166,310.43 C8.596,309.86 7.672,309.86 7.103,310.43 C7.03,310.503 6.993,310.595 6.938,310.678 L7.722,311.462 L3.595,315.59 L2.976,314.971 C2.406,314.401 1.482,314.401 0.913,314.971 C0.84,315.044 0.803,315.136 0.748,315.219 L3.595,318.067 L0.707,320.957 L0.707,321.783 L1.532,321.783 L1.532,321.783 Z" id="Shape" fill="#777777" fill-rule="nonzero"></path>
            <path d="M51.532,321.783 L54.42,318.893 L57.267,321.741 C57.35,321.687 57.442,321.649 57.515,321.576 C58.085,321.006 58.085,320.082 57.515,319.512 L56.896,318.893 L61.022,314.765 L61.806,315.549 C61.889,315.495 61.981,315.457 62.054,315.384 C62.624,314.814 62.624,313.89 62.054,313.32 L59.166,310.43 C58.596,309.86 57.672,309.86 57.103,310.43 C57.03,310.503 56.993,310.595 56.938,310.678 L57.722,311.462 L53.595,315.59 L52.976,314.971 C52.406,314.401 51.482,314.401 50.913,314.971 C50.84,315.044 50.803,315.136 50.748,315.219 L53.595,318.067 L50.707,320.957 L50.707,321.783 L51.532,321.783 L51.532,321.783 Z" id="Shape-6" fill="#444444" fill-rule="nonzero"></path>
            <polygon id="Shape" fill="#CCCCCC" fill-rule="nonzero" points="5.485 50 2.485 53 0.485 55 5.485 55"></polygon>
            <polygon id="Shape" fill="#434341" fill-rule="nonzero" points="0.485 709.515 0.485 722.485 6.97 716"></polygon>
            <polygon id="Shape" fill="#434341" fill-rule="nonzero" points="6.485 759.515 6.485 772.485 0 766"></polygon>
            <polygon id="Rectangle-16" fill="#A6A6A6" fill-rule="nonzero" points="14.485 433 19.485 433 19.485 424 23.091602 424 23.091602 424 12.485 413.393398 1.878398 424 5.485 424 5.485 424 5.485 433 10.485 433 10.485 426 14.485 426"></polygon>
            <polygon id="Rectangle-18" fill="#F2F2F2" fill-rule="nonzero" points="64.485 433 69.485 433 69.485 424 73.091602 424 73.091602 424 62.485 413.393398 51.878398 424 55.485 424 55.485 424 55.485 433 60.485 433 60.485 426 64.485 426"></polygon>
            <g id="Group-3" transform="translate(52.485000, 513.000000)" fill="#F2F2F2" fill-rule="nonzero">
                <path d="M14,9 L11,9 L11,4 C11,3.448 10.552,3 10,3 C9.448,3 9,3.448 9,4 L9,10 C9,10.552 9.448,11 10,11 L14,11 C14.552,11 15,10.552 15,10 C15,9.447 14.552,9 14,9 L14,9 Z" id="Shape"></path>
                <path d="M10,0 C4.477,0 0,4.477 0,10 C0,15.523 4.477,20 10,20 C15.523,20 20,15.523 20,10 C20,4.477 15.523,0 10,0 L10,0 Z M10,18 C5.582,18 2,14.418 2,10 C2,5.582 5.582,2 10,2 C14.418,2 18,5.582 18,10 C18,14.418 14.418,18 10,18 L10,18 Z" id="Shape"></path>
            </g>
            <g id="Group-2" transform="translate(2.485000, 513.000000)" fill="#A6A6A6" fill-rule="nonzero">
                <path d="M10,0 C4.477,0 0,4.477 0,10 C0,15.523 4.477,20 10,20 C15.523,20 20,15.523 20,10 C20,4.477 15.523,0 10,0 L10,0 Z M10,18 C5.582,18 2,14.418 2,10 C2,5.582 5.582,2 10,2 C14.418,2 18,5.582 18,10 C18,14.418 14.418,18 10,18 L10,18 Z" id="Shape"></path>
                <path d="M14,9 L11,9 L11,4 C11,3.448 10.552,3 10,3 C9.448,3 9,3.448 9,4 L9,10 C9,10.552 9.448,11 10,11 L14,11 C14.552,11 15,10.552 15,10 C15,9.447 14.552,9 14,9 L14,9 Z" id="Shape"></path>
            </g>
            <path d="M4.985,575 C6.365712,575 7.485,573.880712 7.485,572.5 C7.485,571.119288 6.365712,570 4.985,570 C3.604288,570 2.485,571.119288 2.485,572.5 C2.485,573.880712 3.604288,575 4.985,575 Z M11.985,575 C13.365712,575 14.485,573.880712 14.485,572.5 C14.485,571.119288 13.365712,570 11.985,570 C10.604288,570 9.485,571.119288 9.485,572.5 C9.485,573.880712 10.604288,575 11.985,575 Z M18.985,575 C20.365712,575 21.485,573.880712 21.485,572.5 C21.485,571.119288 20.365712,570 18.985,570 C17.604288,570 16.485,571.119288 16.485,572.5 C16.485,573.880712 17.604288,575 18.985,575 Z" id="Oval-10" fill="#999999" fill-rule="nonzero"></path>
            <path d="M54.985,575 C56.365712,575 57.485,573.880712 57.485,572.5 C57.485,571.119288 56.365712,570 54.985,570 C53.604288,570 52.485,571.119288 52.485,572.5 C52.485,573.880712 53.604288,575 54.985,575 Z M61.985,575 C63.365712,575 64.485,573.880712 64.485,572.5 C64.485,571.119288 63.365712,570 61.985,570 C60.604288,570 59.485,571.119288 59.485,572.5 C59.485,573.880712 60.604288,575 61.985,575 Z M68.985,575 C70.365712,575 71.485,573.880712 71.485,572.5 C71.485,571.119288 70.365712,570 68.985,570 C67.604288,570 66.485,571.119288 66.485,572.5 C66.485,573.880712 67.604288,575 68.985,575 Z" id="Oval-12" fill="#F2F2F2" fill-rule="nonzero"></path>
            <g id="编组-dark" transform="translate(5.485000, 842.000000)" fill="#474747">
                <rect id="矩形" x="0" y="0" width="3.80952381" height="3.80952381"></rect>
                <rect id="矩形备份-3" x="0" y="6.0952381" width="3.80952381" height="3.80952381"></rect>
                <rect id="矩形备份-6" x="0" y="12.1904762" width="3.80952381" height="3.80952381"></rect>
                <rect id="矩形备份" x="6.0952381" y="0" width="3.80952381" height="3.80952381"></rect>
                <rect id="矩形备份-4" x="6.0952381" y="6.0952381" width="3.80952381" height="3.80952381"></rect>
                <rect id="矩形备份-7" x="6.0952381" y="12.1904762" width="3.80952381" height="3.80952381"></rect>
                <rect id="矩形备份-2" x="12.1904762" y="0" width="3.80952381" height="3.80952381"></rect>
                <rect id="矩形备份-5" x="12.1904762" y="6.0952381" width="3.80952381" height="3.80952381"></rect>
                <rect id="矩形备份-8" x="12.1904762" y="12.1904762" width="3.80952381" height="3.80952381"></rect>
            </g>
            <g id="编组" transform="translate(61.485000, 842.000000)" fill="#A6A6A6">
                <rect id="矩形" x="0" y="0" width="3.80952381" height="3.80952381"></rect>
                <rect id="矩形备份-3" x="0" y="6.0952381" width="3.80952381" height="3.80952381"></rect>
                <rect id="矩形备份-6" x="0" y="12.1904762" width="3.80952381" height="3.80952381"></rect>
                <rect id="矩形备份" x="6.0952381" y="0" width="3.80952381" height="3.80952381"></rect>
                <rect id="矩形备份-4" x="6.0952381" y="6.0952381" width="3.80952381" height="3.80952381"></rect>
                <rect id="矩形备份-7" x="6.0952381" y="12.1904762" width="3.80952381" height="3.80952381"></rect>
                <rect id="矩形备份-2" x="12.1904762" y="0" width="3.80952381" height="3.80952381"></rect>
                <rect id="矩形备份-5" x="12.1904762" y="6.0952381" width="3.80952381" height="3.80952381"></rect>
                <rect id="矩形备份-8" x="12.1904762" y="12.1904762" width="3.80952381" height="3.80952381"></rect>
            </g>
        </g>
    </g>
</svg>